<?xml version="1.0" standalone="no"?>
<!DOCTYPE svg PUBLIC "-//W3C//DTD SVG 20010904//EN"
 "http://www.w3.org/TR/2001/REC-SVG-20010904/DTD/svg10.dtd">
<svg version="1.0" xmlns="http://www.w3.org/2000/svg"
 width="600.000000pt" height="600.000000pt" viewBox="0 0 600.000000 600.000000"
 preserveAspectRatio="xMidYMid meet">
<metadata>
Created by potrace 1.11, written by Peter Selinger 2001-2013
</metadata>
<g transform="translate(0.000000,600.000000) scale(0.100000,-0.100000)"
fill="#000000" stroke="none">
<path d="M4100 5692 c-147 -64 -258 -129 -576 -338 -109 -71 -204 -124 -222
-124 -12 0 -163 91 -262 157 -41 28 -94 57 -116 66 -65 25 -254 49 -434 56
l-164 6 -9 36 c-8 33 -1 63 28 132 10 24 -11 22 -52 -5 -30 -20 -67 -81 -87
-142 -6 -18 -7 -18 -29 1 -28 26 -81 53 -104 53 -15 0 -18 -9 -18 -45 -1 -60
-27 -92 -95 -118 -30 -11 -89 -42 -131 -68 -42 -27 -89 -51 -105 -55 -24 -4
-78 19 -297 130 -239 120 -280 138 -381 161 -73 17 -133 25 -171 23 l-60 -3
-12 -100 c-6 -55 -17 -134 -23 -175 -13 -83 -16 -374 -6 -460 10 -82 46 -216
77 -293 36 -88 167 -280 227 -334 46 -41 46 -42 27 -57 -39 -29 -184 -106
-199 -106 -26 0 -28 -19 -4 -39 13 -10 48 -40 78 -65 30 -26 74 -59 97 -74 23
-15 43 -30 43 -34 0 -7 -59 -3 -107 8 -46 9 -23 -32 70 -122 158 -156 291
-248 442 -308 174 -69 244 -120 314 -230 49 -79 89 -174 84 -204 -1 -13 -12
-41 -23 -63 -23 -44 -19 -63 11 -54 10 4 19 4 19 1 0 -4 -18 -54 -39 -114 -68
-184 -81 -244 -91 -416 -6 -87 -7 -163 -4 -168 3 -5 12 -7 20 -4 11 4 14 -5
14 -39 0 -50 25 -177 41 -206 13 -25 31 -20 40 12 8 27 9 22 15 -81 6 -103 19
-163 71 -320 64 -193 98 -269 176 -405 91 -155 167 -302 167 -320 0 -9 -10
-15 -24 -15 -44 0 -151 -39 -186 -69 -52 -43 -92 -121 -88 -173 3 -38 7 -44
34 -53 17 -6 37 -15 45 -22 8 -6 41 -14 74 -17 106 -10 165 -18 165 -22 0 -3
-6 -15 -14 -27 -16 -24 -46 -133 -46 -164 0 -22 37 -43 76 -43 14 0 34 -10 43
-21 16 -20 28 -22 172 -25 162 -3 222 8 320 57 49 24 55 33 82 127 13 46 32
92 43 103 22 21 122 59 156 59 22 -1 21 -2 -5 -16 -16 -8 -26 -21 -24 -27 7
-23 163 -40 219 -24 27 7 27 7 26 -40 -1 -60 24 -83 91 -83 29 0 57 -7 76 -20
25 -17 40 -19 95 -14 36 4 74 11 85 17 11 7 50 12 87 12 77 0 121 24 126 69 3
20 8 26 18 22 9 -3 75 -18 147 -32 106 -21 153 -25 237 -22 91 3 99 2 65 -8
-45 -12 -57 -37 -25 -54 25 -14 162 -8 203 9 95 38 246 172 317 282 86 133
130 309 110 437 -28 173 -161 341 -341 433 -73 36 -93 70 -113 186 -28 156
-103 397 -151 478 -13 23 -59 72 -103 110 -43 39 -96 94 -118 124 -21 29 -62
73 -89 96 -47 40 -81 64 -245 165 -66 41 -65 47 3 31 l39 -9 -23 21 c-22 21
-80 55 -164 97 -22 11 -128 54 -235 95 -107 42 -224 93 -260 115 -75 44 -160
129 -160 160 0 47 59 145 117 194 37 31 173 106 193 106 29 0 255 119 304 160
26 22 52 40 57 40 5 0 9 10 9 21 0 19 -4 21 -30 15 -24 -4 -9 11 67 68 125 95
203 173 181 181 -9 4 -38 -5 -64 -18 -100 -50 -95 -37 19 57 64 54 117 103
117 111 0 7 -30 25 -68 39 -62 24 -192 115 -192 135 0 12 37 59 101 126 72 76
85 92 147 191 53 86 102 199 126 292 17 65 20 106 37 503 11 267 9 360 -9 359
-4 -1 -45 -18 -92 -38z m70 -21 c0 -6 -5 -13 -11 -16 -6 -4 -8 -13 -5 -21 3
-8 1 -14 -4 -14 -6 0 -10 5 -10 11 0 8 -5 8 -15 -1 -8 -7 -15 -9 -15 -5 0 5
-8 1 -17 -7 -18 -15 -57 -32 -59 -26 -1 2 -10 -5 -20 -14 -11 -9 -22 -17 -27
-17 -4 0 -18 -8 -32 -17 -13 -8 -30 -17 -37 -18 -7 -1 -26 -14 -42 -29 -16
-15 -34 -27 -41 -27 -6 0 -26 -15 -45 -32 -18 -18 -30 -26 -25 -18 8 13 7 13
-10 0 -10 -8 -32 -22 -50 -30 -18 -8 -33 -19 -34 -25 0 -5 -4 -10 -8 -10 -16
-1 -59 -28 -76 -49 -10 -11 -15 -14 -11 -6 4 8 -8 3 -28 -12 -20 -16 -42 -28
-48 -28 -6 0 -8 -5 -4 -12 4 -7 3 -8 -5 -4 -14 9 -53 -3 -46 -14 3 -5 -3 -8
-12 -8 -10 1 -37 -8 -60 -19 -24 -12 -45 -18 -48 -14 -2 5 8 14 23 20 15 7
117 70 227 141 269 171 344 216 445 265 141 69 150 72 150 56z m-1878 -163
l11 -38 136 0 c90 0 192 -8 301 -24 187 -27 250 -51 395 -151 173 -119 175
-121 175 -175 0 -48 12 -71 26 -49 9 16 19 -2 50 -96 15 -44 37 -101 50 -127
13 -26 35 -77 49 -114 34 -89 161 -335 221 -426 26 -40 63 -87 81 -105 46 -43
135 -101 178 -116 l36 -13 -67 -54 c-37 -30 -97 -79 -133 -108 -36 -29 -67
-57 -69 -62 -5 -15 61 -12 108 5 24 8 45 13 47 11 11 -11 -212 -170 -262 -186
-48 -16 -50 -50 -2 -50 l32 -1 -25 -20 c-49 -42 -249 -129 -294 -129 -25 0
-131 -56 -170 -91 -19 -17 -42 -42 -49 -57 -8 -15 -28 -53 -46 -86 -41 -77
-40 -111 5 -170 71 -94 159 -145 426 -252 82 -32 147 -63 145 -69 -4 -17 74
-80 123 -99 25 -10 79 -39 120 -65 41 -26 109 -69 150 -94 66 -40 145 -107
127 -107 -4 0 -21 9 -39 20 -34 21 -68 26 -68 12 0 -13 29 -36 95 -73 76 -42
230 -190 260 -249 37 -74 104 -297 126 -420 15 -86 28 -127 50 -163 16 -27 29
-57 29 -67 0 -24 -32 -44 -47 -29 -7 7 -14 -6 -22 -38 -70 -272 -91 -299 -270
-358 -78 -26 -91 -27 -189 -21 -57 4 -166 18 -240 32 -156 28 -313 31 -435 9
-96 -17 -185 -69 -238 -139 -33 -43 -105 -105 -112 -95 -2 2 8 76 23 164 15
93 29 155 33 147 15 -23 25 -2 32 73 6 63 10 75 25 75 10 0 21 7 24 16 27 70
58 456 42 519 -12 47 -26 9 -26 -70 0 -38 -7 -135 -16 -215 -13 -111 -21 -150
-35 -166 -11 -11 -19 -28 -19 -38 0 -26 -31 -74 -50 -79 -13 -3 -20 -24 -29
-88 -20 -142 -33 -201 -47 -206 -7 -2 -11 -13 -9 -24 2 -11 1 -17 -4 -15 -4 3
-6 36 -4 75 3 47 0 72 -8 77 -8 4 -9 3 -5 -4 4 -7 3 -12 -2 -12 -5 0 -15 -20
-22 -45 -14 -51 -25 -62 -45 -45 -11 9 -16 7 -24 -8 -6 -11 -7 -23 -3 -27 4
-5 1 -5 -6 -1 -7 4 -10 12 -7 17 3 5 -1 6 -9 3 -15 -6 -20 -18 -17 -37 1 -4
-8 -3 -18 3 -13 7 -22 7 -26 0 -3 -5 -12 -10 -18 -10 -7 0 -6 4 3 11 12 8 9 9
-12 5 -15 -3 -30 -2 -33 4 -4 6 1 7 11 3 13 -5 15 -3 9 7 -5 8 -4 11 2 7 5 -3
24 -9 42 -12 28 -5 30 -3 19 9 -7 8 -16 12 -20 9 -4 -2 -16 1 -26 6 -13 7 -22
7 -30 -1 -9 -9 -12 -9 -12 1 0 7 -6 11 -14 8 -8 -3 -22 3 -31 13 -25 27 -57
29 -77 3 -10 -11 -18 -26 -18 -32 0 -21 23 -60 33 -54 6 4 7 1 1 -8 -12 -20
-14 -39 -3 -39 5 0 9 -8 9 -18 0 -10 6 -26 14 -37 7 -11 17 -35 21 -53 4 -18
13 -36 20 -38 7 -3 11 -14 7 -26 -3 -14 -1 -19 6 -14 8 5 10 1 5 -10 -5 -13
-3 -15 7 -9 8 5 11 4 7 -2 -4 -6 -17 -9 -29 -8 -13 1 -42 3 -65 4 l-43 1 0
164 c0 135 3 166 15 176 13 10 13 15 3 21 -7 4 -15 3 -19 -3 -4 -6 -7 2 -7 18
0 75 -91 423 -127 484 l-14 25 -1 -30 c0 -17 7 -57 15 -88 8 -32 15 -63 15
-69 0 -6 -39 28 -87 75 -84 82 -228 207 -239 207 -16 0 58 -81 189 -209 81
-80 150 -155 153 -168 8 -30 -3 -73 -19 -73 -7 0 -18 9 -25 20 -15 25 -28 26
-35 1 -4 -16 -13 -19 -64 -16 -34 2 -69 -3 -82 -10 l-24 -12 23 -16 c12 -8 19
-20 16 -25 -7 -12 18 -35 27 -25 4 3 7 -3 7 -15 0 -13 6 -22 16 -22 8 0 13 -4
10 -9 -3 -5 4 -20 17 -33 12 -14 23 -31 25 -38 1 -7 17 -30 35 -51 24 -28 38
-37 55 -34 12 2 20 0 17 -6 -4 -5 -11 -7 -16 -4 -12 8 -11 -2 2 -27 8 -15 8
-19 0 -14 -6 4 -11 2 -11 -4 0 -6 -4 -9 -9 -6 -14 9 -63 -12 -56 -24 3 -5 3
-10 -2 -10 -4 0 -19 35 -32 78 -13 42 -63 147 -109 232 -149 272 -159 292
-215 450 -68 195 -81 253 -34 154 19 -39 40 -74 46 -78 16 -10 15 -5 -29 101
-23 53 -54 149 -70 211 -29 116 -45 145 -66 117 -17 -23 -34 78 -34 202 0 89
-2 103 -16 103 -15 0 -16 11 -11 93 6 102 29 196 78 331 24 68 34 85 41 72 9
-16 38 -22 38 -8 0 5 20 31 45 58 25 27 45 52 45 56 0 15 -27 8 -54 -13 l-26
-20 0 24 c0 28 -24 52 -41 41 -9 -5 -10 -1 -4 17 13 42 8 64 -34 154 -79 169
-154 241 -331 321 -128 57 -235 119 -334 193 -93 71 -196 161 -196 172 0 5 19
10 43 10 63 2 102 13 102 28 0 8 -26 28 -58 45 -32 17 -82 50 -110 73 -29 23
-63 51 -77 62 l-24 19 74 37 c179 89 320 203 418 337 95 130 193 317 238 457
24 74 44 144 44 154 0 29 18 57 76 119 66 69 71 98 17 98 l-37 0 71 45 c40 24
101 57 136 73 70 32 105 71 114 127 l6 35 29 -18 c17 -9 42 -32 55 -49 14 -18
29 -33 33 -33 5 0 16 26 25 58 9 31 22 66 28 77 11 19 12 18 15 -10 1 -16 7
-47 14 -67z m-1333 66 c145 -26 189 -43 416 -156 235 -118 261 -134 245 -153
-5 -6 -6 -16 -2 -20 4 -5 1 -5 -6 -1 -10 6 -10 11 -1 22 9 11 6 16 -17 24 -15
6 -34 8 -41 6 -8 -3 -11 -1 -8 4 3 6 -3 10 -14 10 -12 0 -21 4 -21 9 0 5 -10
13 -22 17 -13 4 -26 12 -30 17 -4 8 -15 4 -30 -8 -17 -15 -20 -16 -9 -2 11 14
11 17 -2 17 -8 0 -18 7 -21 16 -5 13 -9 14 -22 3 -12 -10 -15 -10 -12 1 2 8
-5 16 -16 18 -13 3 -16 0 -11 -9 5 -8 4 -10 -4 -5 -6 4 -9 11 -7 14 2 4 -7 12
-20 19 -18 8 -22 8 -17 0 4 -7 -1 -6 -10 2 -9 7 -24 11 -32 7 -9 -3 -13 -2
-10 4 3 6 -2 11 -12 12 -10 0 -23 2 -29 2 -6 1 -20 8 -30 16 -10 9 -15 10 -10
3 5 -9 2 -11 -8 -7 -9 3 -13 11 -9 16 4 7 -4 9 -20 6 -15 -3 -28 0 -30 5 -2 6
-12 12 -23 13 -10 2 -30 5 -44 7 -107 21 -120 21 -121 -2 -1 -11 -2 -29 -3
-38 -5 -47 -20 -171 -23 -198 -2 -16 -5 -56 -6 -87 0 -32 -4 -58 -7 -58 -4 0
-6 -23 -5 -50 1 -28 -2 -53 -7 -56 -5 -3 -5 -11 -1 -17 4 -6 8 -36 9 -67 3
-78 17 -158 41 -240 9 -30 18 -62 19 -70 2 -8 7 -16 13 -18 5 -2 7 -10 4 -19
-4 -10 -2 -14 4 -10 7 5 9 -1 5 -15 -3 -14 -2 -19 6 -14 12 7 16 -4 12 -38 -1
-10 3 -15 8 -12 6 4 14 1 18 -5 4 -8 3 -9 -4 -5 -14 8 -15 4 -6 -18 3 -9 10
-13 15 -10 5 3 9 0 9 -7 0 -7 3 -9 7 -6 11 12 34 -14 24 -27 -9 -11 32 -70 42
-60 2 3 7 -2 11 -11 3 -10 2 -14 -5 -9 -6 3 -5 -3 2 -14 9 -15 18 -18 29 -12
12 6 16 3 17 -13 2 -17 0 -19 -7 -7 -6 10 -10 11 -10 3 0 -15 35 -35 45 -25 5
4 5 1 1 -5 -4 -8 -2 -13 5 -13 10 0 10 -3 1 -12 -18 -18 -76 44 -165 171 -87
126 -118 190 -153 313 -51 181 -54 381 -13 688 23 169 25 180 35 180 4 0 46
-7 93 -16z m3186 -24 c3 -6 -1 -7 -9 -4 -18 7 -21 14 -7 14 6 0 13 -4 16 -10z
m-71 -37 c-4 -21 -9 -159 -9 -308 -1 -267 -1 -271 -28 -349 -55 -158 -119
-275 -199 -366 -41 -47 -87 -95 -100 -108 l-26 -23 -45 83 c-64 118 -120 233
-152 308 -15 36 -37 85 -49 110 -39 77 -109 241 -105 244 14 11 353 238 394
263 28 17 91 57 140 88 84 53 158 93 179 94 5 1 5 -15 0 -36z m83 2 c0 -8 -4
-12 -9 -9 -5 3 -6 10 -3 15 9 13 12 11 12 -6z m-9 -36 c-6 -4 -13 -15 -14 -24
-1 -9 -5 -20 -8 -23 -4 -3 -5 4 -3 16 2 12 6 25 10 28 4 4 1 14 -6 22 -11 13
-9 14 10 1 15 -9 18 -16 11 -20z m-2939 -101 c107 -46 125 -56 276 -151 155
-99 185 -124 185 -154 0 -32 -65 -254 -87 -297 -9 -17 -35 -64 -59 -103 -24
-40 -44 -75 -44 -78 0 -24 -121 -184 -195 -258 -43 -43 -40 -43 -130 37 -113
100 -177 196 -226 341 -22 63 -24 86 -23 235 0 126 5 196 23 295 13 72 23 151
24 176 l1 46 80 -24 c45 -14 123 -43 175 -65z m308 -84 c-3 -3 -12 -4 -19 -1
-8 3 -5 6 6 6 11 1 17 -2 13 -5z m134 -51 c13 -16 12 -17 -3 -4 -10 7 -18 15
-18 17 0 8 8 3 21 -13z m76 -20 c-9 -2 -14 -9 -11 -15 4 -7 2 -8 -5 -4 -15 10
-4 26 17 25 15 -1 15 -2 -1 -6z m2380 -378 c0 -8 -4 -12 -9 -9 -5 3 -6 10 -3
15 9 13 12 11 12 -6z m-70 -140 c0 -8 -4 -12 -9 -9 -5 3 -6 10 -3 15 9 13 12
11 12 -6z m-26 -68 c-10 -9 -11 -8 -5 6 3 10 9 15 12 12 3 -3 0 -11 -7 -18z
m-1 -21 c0 -2 -8 -10 -17 -17 -16 -13 -17 -12 -4 4 13 16 21 21 21 13z m-76
-112 c3 -8 2 -12 -4 -9 -6 3 -10 10 -10 16 0 14 7 11 14 -7z m-1977 -1636 c-3
-8 -6 -5 -6 6 -1 11 2 17 5 13 3 -3 4 -12 1 -19z m2789 -1553 c3 -14 10 -25
14 -25 13 0 -27 -140 -46 -163 -28 -33 -46 -47 -62 -47 -12 0 -11 4 3 20 10
11 15 20 11 20 -4 0 2 13 13 29 23 32 42 111 35 148 -8 45 21 61 32 18z
m-2381 -174 c3 -5 2 -12 -3 -15 -5 -3 -9 1 -9 9 0 17 3 19 12 6z m35 -1 c0 -5
-5 -10 -11 -10 -5 0 -7 5 -4 10 3 6 8 10 11 10 2 0 4 -4 4 -10z m-77 -25 c-3
-9 -8 -14 -10 -11 -3 3 -2 9 2 15 9 16 15 13 8 -4z m2257 -88 c0 -27 -78 -69
-185 -98 -65 -17 -411 -19 -475 -2 -66 17 -216 43 -290 49 -36 3 -95 8 -132
11 -135 11 -60 33 112 33 68 0 153 -9 241 -24 188 -34 289 -41 405 -27 55 6
117 13 139 15 22 2 69 16 105 30 76 29 80 30 80 13z m198 -12 c-33 -73 -271
-169 -500 -202 -29 -4 -38 -2 -38 9 0 10 36 25 108 47 157 48 257 86 345 131
44 22 83 40 88 40 5 0 4 -11 -3 -25z m-2063 -133 c-3 -3 -11 0 -18 7 -9 10 -8
11 6 5 10 -3 15 -9 12 -12z m-372 -119 c-4 -11 -3 -14 5 -9 8 5 10 2 5 -9 -4
-13 -8 -14 -14 -4 -6 10 -11 10 -25 -2 -13 -10 -16 -11 -10 -1 5 8 -10 2 -33
-13 -22 -15 -38 -32 -34 -38 3 -5 1 -7 -5 -3 -6 3 -17 -2 -24 -12 -7 -10 -20
-22 -28 -27 -19 -12 11 38 49 79 42 47 128 76 114 39z m40 3 c3 -8 -2 -20 -11
-27 -14 -11 -15 -11 -5 0 6 7 9 20 6 27 -3 8 -3 14 0 14 3 0 7 -6 10 -14z
m-189 -18 c-33 -53 -104 -138 -104 -123 0 33 33 86 69 111 40 27 45 29 35 12z
m11 -127 c3 -5 2 -12 -3 -15 -5 -3 -9 1 -9 9 0 17 3 19 12 6z m95 3 c0 -8 -19
-13 -24 -6 -3 5 1 9 9 9 8 0 15 -2 15 -3z m498 -53 c18 -11 15 -25 -9 -33 -11
-4 -22 -16 -26 -25 -4 -10 -13 -23 -21 -29 -9 -7 -12 -16 -7 -24 5 -8 4 -11
-3 -6 -10 6 -29 -16 -31 -37 0 -4 -7 -20 -16 -36 -8 -17 -12 -38 -9 -48 5 -15
4 -16 -5 -3 -9 13 -11 11 -12 -7 -1 -13 -3 -27 -4 -33 -1 -5 -3 -15 -4 -22 -3
-29 -15 7 -13 40 5 86 53 206 99 248 28 26 40 29 61 15z m-167 -14 c-6 -8 -7
-18 -3 -22 4 -5 2 -5 -4 -2 -7 4 -24 -3 -38 -14 -20 -15 -25 -27 -21 -43 5
-15 4 -17 -3 -7 -8 11 -13 8 -25 -15 -24 -48 -49 -133 -42 -144 3 -5 1 -10 -4
-10 -6 0 -11 -9 -11 -20 0 -11 -4 -20 -10 -20 -22 0 2 146 34 210 30 57 76
100 109 100 24 0 27 -3 18 -13z m-176 -77 c-19 -33 -31 -60 -28 -60 3 0 1 -6
-4 -12 -8 -11 -19 -40 -28 -78 0 -3 -6 -15 -13 -27 -16 -29 -45 -20 -37 11 14
47 50 133 69 163 16 24 58 61 73 63 1 0 -13 -27 -32 -60z m101 -67 c-3 -4 -6
-1 -6 6 0 7 -4 9 -10 6 -6 -4 -7 1 -3 11 6 15 7 15 15 -1 6 -9 7 -19 4 -22z
m-19 -45 c-3 -7 -5 -2 -5 12 0 14 2 19 5 13 2 -7 2 -19 0 -25z m328 -67 c-3
-6 -11 -11 -16 -11 -5 0 -4 6 3 14 14 16 24 13 13 -3z"/>
<path d="M2690 5411 c0 -6 1 -11 3 -11 28 0 146 -29 230 -56 115 -38 164 -41
82 -4 -129 56 -315 99 -315 71z"/>
<path d="M1907 5003 c-14 -17 -57 -115 -57 -131 0 -4 4 -13 8 -20 7 -9 27 -4
86 23 42 19 109 40 149 46 40 7 76 15 80 19 16 14 -52 51 -120 65 -90 19 -127
19 -146 -2z"/>
<path d="M3040 5006 c-34 -9 -45 -17 -45 -31 0 -16 9 -21 51 -26 49 -6 152
-55 216 -102 34 -25 61 -17 49 15 -4 13 -12 46 -16 73 -12 82 -12 83 -117 83
-51 0 -113 -5 -138 -12z"/>
<path d="M1910 4731 c-96 -32 -203 -87 -264 -134 -32 -25 -63 -48 -70 -50 -7
-3 -6 -9 4 -21 14 -17 59 -17 104 0 13 5 14 -5 10 -78 -5 -62 -2 -94 10 -128
9 -25 16 -48 16 -51 0 -4 -28 -17 -62 -29 -75 -27 -108 -47 -108 -66 0 -19 10
-18 34 5 12 10 50 29 86 42 58 21 82 24 220 24 149 0 159 -1 255 -33 55 -19
115 -42 133 -53 45 -26 55 -24 107 16 54 41 129 65 199 65 76 0 182 -26 234
-56 l45 -26 91 22 c132 34 262 38 366 11 96 -24 100 -25 100 -11 0 8 -42 33
-77 45 -1 1 9 29 23 64 14 34 28 93 31 130 l6 69 40 5 c22 3 47 13 56 22 15
15 14 18 -6 34 -45 38 -220 130 -263 140 -92 21 -163 14 -244 -24 -130 -62
-182 -138 -174 -257 4 -68 32 -138 74 -183 20 -22 23 -30 12 -36 -8 -5 -21 -2
-33 7 -69 51 -194 80 -315 71 -79 -5 -138 -27 -192 -72 -17 -14 -35 -21 -47
-18 -19 5 -19 8 -7 32 42 81 46 234 8 331 -27 69 -99 145 -167 176 -72 32
-166 39 -235 15z m180 -12 c69 -16 133 -62 163 -117 60 -111 71 -259 27 -358
l-19 -43 -46 14 c-26 7 -49 16 -52 19 -3 3 5 18 19 34 107 128 15 321 -155
322 -94 0 -152 -32 -189 -104 -26 -50 -21 -124 11 -167 13 -17 21 -32 19 -34
-1 -2 -28 -6 -59 -10 l-57 -7 -17 46 c-14 35 -16 64 -13 128 10 154 74 231
227 273 58 16 84 17 141 4z m1205 -132 c55 -46 81 -120 71 -200 -12 -84 -50
-157 -84 -157 -11 0 -13 8 -8 33 26 121 29 165 16 196 -35 86 -102 126 -197
118 -71 -5 -99 -20 -140 -74 -25 -33 -28 -44 -28 -114 0 -71 3 -81 32 -123
l33 -46 -31 0 c-39 0 -72 36 -100 109 -62 165 37 303 229 320 92 8 140 -6 207
-62z m-1178 -50 c85 -45 99 -189 25 -260 -24 -23 -31 -25 -67 -17 -22 5 -59
10 -83 10 -58 0 -98 23 -122 70 -23 46 -26 90 -6 128 16 30 63 77 86 85 31 10
136 0 167 -16z m1074 -10 c36 -19 47 -33 62 -72 21 -58 15 -120 -17 -168 -20
-30 -26 -32 -100 -39 -99 -9 -135 4 -161 58 -24 48 -24 128 -1 173 20 38 83
70 137 71 20 0 56 -10 80 -23z"/>
<path d="M2010 4493 c-36 -7 -69 -41 -76 -78 -6 -35 12 -81 47 -116 43 -43
144 -6 161 59 22 84 -44 151 -132 135z m99 -127 c-16 -35 -70 -62 -95 -48 -17
10 -15 11 15 12 24 0 40 8 60 30 32 36 33 36 20 6z"/>
<path d="M3064 4486 c-43 -19 -64 -53 -64 -102 0 -100 110 -127 184 -45 14 16
17 30 13 62 -10 73 -71 112 -133 85z m106 -91 c0 -14 -9 -34 -20 -45 -33 -33
-41 -23 -15 16 14 20 25 41 25 45 0 5 2 9 5 9 3 0 5 -11 5 -25z"/>
<path d="M2573 4200 c-78 -16 -111 -48 -94 -92 12 -32 37 -52 99 -78 29 -13
57 -31 63 -41 13 -26 36 -24 51 5 7 13 33 39 58 58 25 19 49 46 54 61 24 68
-97 113 -231 87z m183 -45 c30 -19 30 -30 2 -55 -13 -11 -40 -35 -61 -55 l-39
-35 -31 24 c-18 13 -49 31 -69 39 -69 29 -71 76 -4 97 45 14 172 5 202 -15z"/>
<path d="M2444 4079 c-3 -6 -1 -16 5 -22 9 -9 14 -8 21 3 9 15 4 30 -10 30 -5
0 -12 -5 -16 -11z"/>
<path d="M2807 4073 c-4 -3 -7 -12 -7 -20 0 -15 26 -18 34 -4 7 11 -18 33 -27
24z"/>
<path d="M2350 4015 c0 -10 7 -15 18 -13 21 4 19 22 -2 26 -10 2 -16 -3 -16
-13z"/>
<path d="M2920 4005 c0 -8 5 -15 10 -15 6 0 10 7 10 15 0 8 -4 15 -10 15 -5 0
-10 -7 -10 -15z"/>
<path d="M2510 3979 c0 -5 5 -7 10 -4 6 3 10 8 10 11 0 2 -4 4 -10 4 -5 0 -10
-5 -10 -11z"/>
<path d="M2754 3979 c-10 -17 13 -36 27 -22 12 12 4 33 -11 33 -5 0 -12 -5
-16 -11z"/>
<path d="M2208 3827 c-45 -35 -77 -81 -65 -93 4 -4 25 9 46 30 24 24 41 34 45
27 13 -21 65 -41 162 -62 87 -19 105 -20 163 -10 36 7 76 19 88 26 18 12 28
12 59 2 44 -16 156 -4 192 19 22 14 25 14 38 -3 12 -17 13 -16 14 8 0 30 -37
82 -52 73 -6 -4 -6 -10 1 -17 6 -6 11 -14 11 -18 0 -10 -49 -28 -108 -39 -46
-8 -59 -7 -97 11 l-44 21 -30 -22 c-54 -41 -231 -37 -343 7 -44 18 -48 29 -13
45 32 14 32 28 1 28 -14 0 -44 -15 -68 -33z"/>
<path d="M2715 3605 c-33 -18 -77 -37 -97 -40 -49 -9 -59 -25 -16 -25 39 0
145 48 172 79 27 30 10 26 -59 -14z"/>
<path d="M2850 2945 c0 -3 12 -24 27 -47 43 -69 73 -145 88 -227 19 -96 19
-98 -4 -77 -20 18 -57 18 -54 0 1 -5 8 -44 17 -86 19 -94 20 -167 2 -191 -16
-21 -21 -16 -30 36 -4 20 -11 37 -15 37 -15 0 -21 -29 -21 -98 0 -37 -11 -134
-25 -216 -13 -82 -22 -153 -18 -159 12 -20 23 14 43 138 11 72 24 141 27 155
l6 25 6 -29 c9 -45 31 -45 31 -1 0 20 6 43 14 51 22 21 31 137 17 212 -7 35
-10 66 -8 69 3 2 15 -12 27 -32 12 -20 24 -35 25 -33 1 2 -5 62 -15 133 -20
146 -44 223 -90 289 -29 43 -50 64 -50 51z"/>
<path d="M1960 2309 c0 -15 64 -158 97 -218 86 -156 235 -354 321 -426 61 -51
45 -16 -30 67 -122 135 -213 268 -333 483 -30 55 -55 97 -55 94z"/>
<path d="M3835 2017 c-105 -46 -162 -86 -226 -159 -88 -99 -130 -153 -171
-218 -33 -51 -72 -149 -64 -157 2 -2 23 29 47 69 111 184 253 342 389 430 103
68 104 70 25 35z"/>
<path d="M2233 1175 c7 -5 12 -16 9 -23 -3 -10 2 -10 22 0 31 14 20 33 -20 33
-20 1 -23 -1 -11 -10z"/>
<path d="M1005 4431 c-3 -5 -1 -12 5 -16 5 -3 10 1 10 9 0 18 -6 21 -15 7z"/>
</g>
</svg>
